<svg id="Layer_1" data-name="Layer 1" xmlns="http://www.w3.org/2000/svg" viewBox="0 0 386.78 124.95"><path d="M92.8,34.19A24.5,24.5,0,0,0,68.29,9.69H37.5A24.5,24.5,0,0,0,13,34.19V65a24.5,24.5,0,0,0,24.5,24.5H68.29A24.5,24.5,0,0,0,92.8,65ZM52.54,79.54c-12.57,0-23-9.09-23-21.12,0-13.38,10-14,14.82-27.56A11.13,11.13,0,0,1,47,32.77c-.92,12.33-8.69,15.07-8.69,25.65,0,5.17,3.85,12.25,13.38,13C38,51.73,58.19,49.74,49.85,24.52a13.3,13.3,0,0,1,4.28-4.58c4.21,24,21.38,20.67,21.38,38.48C75.51,69,65.92,79.54,52.54,79.54Z" transform="translate(-13 -9.69)" style="fill:#fff"/><path d="M57.59,46.33c5.36,7.48,5.32,15.62,0,23.29C69.07,64.61,69.07,51.28,57.59,46.33Z" transform="translate(-13 -9.69)" style="fill:#fff"/><path d="M139.09,50.55q0,10.59-5.2,16.11t-15.22,5.51q-9.87,0-15.15-5.54T98.25,50.49q0-10.49,5.25-16T118.73,29q10,0,15.19,5.48T139.09,50.55Zm-28.89,0q0,12.17,8.47,12.17c2.87,0,5-1,6.39-3s2.08-5,2.08-9.21-.7-7.29-2.11-9.3a7.18,7.18,0,0,0-6.3-3Q110.2,38.25,110.2,50.55Z" transform="translate(-13 -9.69)" style="fill:#fff"/><path d="M163.78,71.6V53.85a10.21,10.21,0,0,0-.93-4.9,3.18,3.18,0,0,0-3-1.65,4.35,4.35,0,0,0-4.11,2.27c-.84,1.51-1.26,4.11-1.26,7.78V71.6H143.25V39.06h8.47l1.41,4h.66a8.93,8.93,0,0,1,4-3.45,14.12,14.12,0,0,1,5.84-1.15c3.6,0,6.4,1.05,8.4,3.13s3,5,3,8.82V71.6Z" transform="translate(-13 -9.69)" style="fill:#fff"/><path d="M179.66,31a4.72,4.72,0,0,1,1.4-3.76c.94-.83,2.45-1.24,4.54-1.24a6.78,6.78,0,0,1,4.57,1.27A4.72,4.72,0,0,1,191.6,31q0,4.93-6,4.94T179.66,31ZM191.17,71.6H179.94V39.06h11.23Z" transform="translate(-13 -9.69)" style="fill:#fff"/><path d="M227.32,55.26q0,8-4.29,12.44t-12,4.47q-7.41,0-11.79-4.57t-4.38-12.34q0-8,4.29-12.37t12.05-4.41a17.15,17.15,0,0,1,8.47,2,13.91,13.91,0,0,1,5.67,5.85A18.74,18.74,0,0,1,227.32,55.26Zm-21.08,0a14.5,14.5,0,0,0,1.12,6.38,3.89,3.89,0,0,0,3.76,2.2,3.76,3.76,0,0,0,3.69-2.2,14.87,14.87,0,0,0,1.08-6.38A14.14,14.14,0,0,0,214.8,49a4.32,4.32,0,0,0-7.44,0A14,14,0,0,0,206.24,55.26Z" transform="translate(-13 -9.69)" style="fill:#fff"/><path d="M251.49,71.6V53.85a10.21,10.21,0,0,0-.93-4.9,3.18,3.18,0,0,0-3-1.65,4.36,4.36,0,0,0-4.11,2.27c-.84,1.51-1.26,4.11-1.26,7.78V71.6H231V39.06h8.47l1.41,4h.66a8.93,8.93,0,0,1,4-3.45,14.12,14.12,0,0,1,5.84-1.15c3.6,0,6.4,1.05,8.4,3.13s3,5,3,8.82V71.6Z" transform="translate(-13 -9.69)" style="fill:#fff"/><path d="M304.85,75.06h-3.66V26.43H284.28V23h37.48v3.41H304.85Z" transform="translate(-13 -9.69)" style="fill:#fff"/><path d="M352.09,75.06l-.89-6.13h-.28a18.34,18.34,0,0,1-6,5.29,16.08,16.08,0,0,1-7.28,1.55c-3.8,0-6.75-1-8.87-2.92a10.45,10.45,0,0,1-3.16-8.08A10,10,0,0,1,330.32,56Q335,52.85,344,52.67l7.36-.22V49.89c0-3.68-.75-6.45-2.24-8.33s-3.9-2.81-7.23-2.81a24.23,24.23,0,0,0-11.14,3l-1.31-3.06a29.34,29.34,0,0,1,12.6-3q6.36,0,9.52,3.31t3.15,10.32V75.06Zm-14.24-2.49q6.19,0,9.77-3.55t3.58-9.84V55.37l-6.76.29q-8.16.39-11.62,2.54a7.32,7.32,0,0,0-3.47,6.71,7.22,7.22,0,0,0,2.22,5.64A9,9,0,0,0,337.85,72.57Z" transform="translate(-13 -9.69)" style="fill:#fff"/><path d="M370.28,36.36V61.42q0,5.85,2.46,8.49t7.61,2.66c4.61,0,8-1.17,10.17-3.49s3.25-6.11,3.25-11.36V36.36h3.49v38.7h-3l-.64-5.34h-.21q-3.78,6-13.42,6-13.22,0-13.21-14.13V36.36Z" transform="translate(-13 -9.69)" style="fill:#fff"/><path d="M103.11,134.17V100.1h2.38v31.83h16.24v2.24Z" transform="translate(-13 -9.69)" style="fill:#fff"/><path d="M126.7,101.81c0-1.49.48-2.24,1.46-2.24a1.3,1.3,0,0,1,1.13.58,2.89,2.89,0,0,1,.41,1.66,2.94,2.94,0,0,1-.41,1.65,1.3,1.3,0,0,1-1.13.61C127.18,104.07,126.7,103.31,126.7,101.81Zm2.63,32.36H127V108.84h2.31Z" transform="translate(-13 -9.69)" style="fill:#fff"/><path d="M164.26,116.81q0,8.58-4.5,13t-13.21,4.39h-8.16V100.1h9.21q8.15,0,12.4,4.27T164.26,116.81Zm-2.59.1q0-7.32-3.72-11T147,102.2h-6.27v29.87h5.64Q161.67,132.07,161.67,116.91Z" transform="translate(-13 -9.69)" style="fill:#fff"/><path d="M188.49,122.15H174.65l-4.76,12h-2.63L181,100h1.52l13.42,34.2h-2.68Zm-13-2.15H187.7l-4.64-12.28c-.39-1-.86-2.29-1.4-4a39,39,0,0,1-1.37,4Z" transform="translate(-13 -9.69)" style="fill:#fff"/><path d="M203.1,119.33v14.84h-2.38V100.1h8.11c4.22,0,7.35.79,9.37,2.35s3,3.91,3,7a9.22,9.22,0,0,1-1.8,5.77,10,10,0,0,1-5.49,3.38l9.25,15.52h-2.84l-8.78-14.84Zm0-2h6.5a10.41,10.41,0,0,0,6.69-1.92,6.9,6.9,0,0,0,2.37-5.68q0-3.89-2.33-5.66c-1.55-1.18-4.09-1.77-7.59-1.77H203.1Z" transform="translate(-13 -9.69)" style="fill:#fff"/><path d="M256,101.76q-6.4,0-10.09,4.1t-3.68,11.23q0,7.29,3.47,11.33t9.93,4a26.94,26.94,0,0,0,7.88-1.1v2.1a25.82,25.82,0,0,1-8.44,1.19q-7.17,0-11.3-4.64t-4.13-13a20.33,20.33,0,0,1,2-9.15,14.35,14.35,0,0,1,5.67-6.12,16.67,16.67,0,0,1,8.58-2.15,20.67,20.67,0,0,1,8.93,1.86l-1,2.14A17.28,17.28,0,0,0,256,101.76Z" transform="translate(-13 -9.69)" style="fill:#fff"/><path d="M285.91,134.17l-.58-4h-.19a11.88,11.88,0,0,1-3.93,3.46,10.41,10.41,0,0,1-4.76,1,8.24,8.24,0,0,1-5.8-1.91,6.83,6.83,0,0,1-2.08-5.29,6.54,6.54,0,0,1,3.09-5.76q3.09-2.06,8.94-2.17l4.82-.13V117.7a8.63,8.63,0,0,0-1.47-5.46c-1-1.22-2.55-1.84-4.73-1.84a15.87,15.87,0,0,0-7.29,2l-.86-2a19.19,19.19,0,0,1,8.24-2q4.17,0,6.24,2.17t2.06,6.75v16.85Zm-9.32-1.63a8.08,8.08,0,0,0,8.74-8.76v-2.49l-4.43.18c-3.56.17-6.09.73-7.61,1.67a4.8,4.8,0,0,0-2.27,4.39,4.68,4.68,0,0,0,1.46,3.69A5.9,5.9,0,0,0,276.59,132.54Z" transform="translate(-13 -9.69)" style="fill:#fff"/><path d="M327.45,134.17V117.56q0-3.7-1.44-5.41a5.51,5.51,0,0,0-4.43-1.7q-3.88,0-5.75,2.14T314,119.33v14.84h-2.35V116.86q0-6.4-5.87-6.41c-2.66,0-4.59.77-5.81,2.32s-1.81,4-1.81,7.42v14h-2.31V108.84h1.91l.49,3.47h.14a7.29,7.29,0,0,1,3-2.92,8.93,8.93,0,0,1,4.27-1q6,0,7.69,4.5h.09a8.64,8.64,0,0,1,3.32-3.33,9.52,9.52,0,0,1,4.74-1.17q4.15,0,6.22,2.22c1.39,1.47,2.08,3.82,2.08,7v16.57Z" transform="translate(-13 -9.69)" style="fill:#fff"/><path d="M348.17,134.64q-5.52,0-8.61-3.41t-3.09-9.52q0-6.06,3-9.71a9.86,9.86,0,0,1,8-3.65,8.64,8.64,0,0,1,7.06,3.13c1.73,2.08,2.59,4.9,2.59,8.48v1.86H338.89q.06,5.22,2.44,8a8.57,8.57,0,0,0,6.84,2.75,21.49,21.49,0,0,0,3.81-.3,23.94,23.94,0,0,0,4.16-1.31V133a18.94,18.94,0,0,1-4,1.27A22.55,22.55,0,0,1,348.17,134.64Zm-.68-24.24a7.59,7.59,0,0,0-5.87,2.42,11.32,11.32,0,0,0-2.59,7h15.66a11,11,0,0,0-1.91-6.88A6.28,6.28,0,0,0,347.49,110.4Z" transform="translate(-13 -9.69)" style="fill:#fff"/><path d="M374.1,108.35a19.66,19.66,0,0,1,3.45.33l-.44,2.21a13.78,13.78,0,0,0-3.29-.39,6.35,6.35,0,0,0-5.31,2.75,11.2,11.2,0,0,0-2.07,6.94v14h-2.31V108.84h2l.23,4.57h.16a10.76,10.76,0,0,1,3.34-3.93A7.78,7.78,0,0,1,374.1,108.35Z" transform="translate(-13 -9.69)" style="fill:#fff"/><path d="M398.08,134.17l-.58-4h-.19a11.88,11.88,0,0,1-3.93,3.46,10.41,10.41,0,0,1-4.76,1,8.24,8.24,0,0,1-5.8-1.91,6.83,6.83,0,0,1-2.08-5.29,6.54,6.54,0,0,1,3.09-5.76q3.09-2.06,8.94-2.17l4.82-.13V117.7a8.63,8.63,0,0,0-1.47-5.46c-1-1.22-2.55-1.84-4.73-1.84a15.87,15.87,0,0,0-7.29,2l-.86-2a19.19,19.19,0,0,1,8.24-2q4.17,0,6.24,2.17t2.06,6.75v16.85Zm-9.32-1.63a8.08,8.08,0,0,0,8.74-8.76v-2.49l-4.43.18c-3.56.17-6.09.73-7.61,1.67a4.8,4.8,0,0,0-2.27,4.39,4.71,4.71,0,0,0,1.45,3.69A6,6,0,0,0,388.76,132.54Z" transform="translate(-13 -9.69)" style="fill:#fff"/></svg>